<svg width="80" height="80" xmlns="http://www.w3.org/2000/svg">
  <defs>
    <radialGradient id="plateGrad" cx="50%" cy="30%" r="70%">
      <stop offset="0%" style="stop-color:#fff;stop-opacity:1" />
      <stop offset="100%" style="stop-color:#f0f0f0;stop-opacity:1" />
    </radialGradient>
  </defs>
  
  <!-- Plate -->
  <ellipse cx="40" cy="55" rx="32" ry="20" fill="url(#plateGrad)" stroke="#ddd" stroke-width="2"/>
  
  <!-- Rice/Naan -->
  <ellipse cx="25" cy="45" rx="12" ry="8" fill="#f5deb3" stroke="#daa520" stroke-width="1"/>
  
  <!-- Curry -->
  <ellipse cx="55" cy="50" rx="15" ry="10" fill="#ff8c00"/>
  <ellipse cx="55" cy="48" rx="12" ry="6" fill="#ff6347"/>
  
  <!-- Curry pieces -->
  <circle cx="50" cy="48" r="2" fill="#8b4513"/>
  <circle cx="58" cy="50" r="2" fill="#90ee90"/>
  <circle cx="55" cy="52" r="2" fill="#ffd700"/>
  
  <!-- Spices scattered -->
  <circle cx="35" cy="35" r="1" fill="#dc143c"/>
  <circle cx="45" cy="30" r="1" fill="#ffd700"/>
  <circle cx="40" cy="25" r="1" fill="#228b22"/>
  <circle cx="50" cy="28" r="1" fill="#ff6347"/>
  <circle cx="30" cy="30" r="1" fill="#ff8c00"/>
  
  <!-- Steam -->
  <path d="M50 40 Q52 35 50 30" stroke="#ddd" stroke-width="1" fill="none"/>
  <path d="M60 42 Q62 37 60 32" stroke="#ddd" stroke-width="1" fill="none"/>
  <path d="M55 38 Q57 33 55 28" stroke="#ddd" stroke-width="1" fill="none"/>
</svg>
