<svg width="80" height="80" xmlns="http://www.w3.org/2000/svg">
  <defs>
    <radialGradient id="plateGrad" cx="50%" cy="30%" r="70%">
      <stop offset="0%" style="stop-color:#fff;stop-opacity:1" />
      <stop offset="100%" style="stop-color:#f0f0f0;stop-opacity:1" />
    </radialGradient>
  </defs>
  
  <!-- Plate -->
  <ellipse cx="40" cy="55" rx="30" ry="18" fill="url(#plateGrad)" stroke="#ddd" stroke-width="2"/>
  
  <!-- Taco 1 -->
  <path d="M25 45 Q35 35 45 45 Q35 55 25 45" fill="#deb887" stroke="#cd853f" stroke-width="1"/>
  <path d="M28 42 Q35 38 42 42" fill="#90ee90"/>
  <path d="M30 40 Q35 37 40 40" fill="#ff6347"/>
  <path d="M32 39 Q35 38 38 39" fill="#ffd700"/>
  
  <!-- Taco 2 -->
  <path d="M45 50 Q55 40 65 50 Q55 60 45 50" fill="#deb887" stroke="#cd853f" stroke-width="1"/>
  <path d="M48 47 Q55 43 62 47" fill="#90ee90"/>
  <path d="M50 45 Q55 42 60 45" fill="#ff6347"/>
  <path d="M52 44 Q55 43 58 44" fill="#ffd700"/>
  
  <!-- Lime -->
  <circle cx="20" cy="60" r="4" fill="#32cd32"/>
  <path d="M20 56 L20 64 L24 60 Z" fill="#228b22"/>
  
  <!-- Hot Peppers -->
  <ellipse cx="65" cy="60" rx="2" ry="4" fill="#ff0000"/>
  <ellipse cx="68" cy="58" rx="1" ry="3" fill="#dc143c"/>
  
  <!-- Salsa drops -->
  <circle cx="30" cy="55" r="1" fill="#ff6347"/>
  <circle cx="55" cy="58" r="1" fill="#ff6347"/>
</svg>
