<svg width="80" height="80" xmlns="http://www.w3.org/2000/svg">
  <defs>
    <radialGradient id="bowlGrad" cx="50%" cy="30%" r="70%">
      <stop offset="0%" style="stop-color:#fff;stop-opacity:1" />
      <stop offset="100%" style="stop-color:#f0f0f0;stop-opacity:1" />
    </radialGradient>
  </defs>
  
  <!-- Bowl -->
  <ellipse cx="40" cy="60" rx="30" ry="15" fill="url(#bowlGrad)" stroke="#ddd" stroke-width="2"/>
  <ellipse cx="40" cy="55" rx="30" ry="8" fill="#fff" stroke="#ddd" stroke-width="1"/>
  
  <!-- Rice -->
  <ellipse cx="40" cy="50" rx="25" ry="6" fill="#f5f5dc"/>
  
  <!-- Vegetables -->
  <circle cx="30" cy="48" r="2" fill="#ff6347"/>
  <circle cx="45" cy="47" r="2" fill="#90ee90"/>
  <circle cx="35" cy="52" r="2" fill="#ffd700"/>
  <circle cx="50" cy="51" r="2" fill="#ff6347"/>
  <circle cx="25" cy="53" r="2" fill="#90ee90"/>
  
  <!-- Meat Pieces -->
  <ellipse cx="42" cy="45" rx="3" ry="2" fill="#8b4513"/>
  <ellipse cx="38" cy="49" rx="2" ry="2" fill="#8b4513"/>
  
  <!-- Chopsticks -->
  <rect x="55" y="25" width="1" height="35" fill="#8b4513" transform="rotate(20 55 42)"/>
  <rect x="58" y="25" width="1" height="35" fill="#8b4513" transform="rotate(20 58 42)"/>
  
  <!-- Steam -->
  <path d="M20 35 Q22 30 20 25" stroke="#ddd" stroke-width="1" fill="none"/>
  <path d="M60 35 Q62 30 60 25" stroke="#ddd" stroke-width="1" fill="none"/>
  <path d="M40 30 Q42 25 40 20" stroke="#ddd" stroke-width="1" fill="none"/>
</svg>
