<svg width="300" height="200" xmlns="http://www.w3.org/2000/svg">
  <defs>
    <linearGradient id="breadGrad" x1="0%" y1="0%" x2="100%" y2="100%">
      <stop offset="0%" style="stop-color:#DEB887;stop-opacity:1" />
      <stop offset="100%" style="stop-color:#CD853F;stop-opacity:1" />
    </linearGradient>
  </defs>
  
  <!-- Background -->
  <rect width="300" height="200" fill="#F5F5F5"/>
  
  <!-- Bread Slices -->
  <ellipse cx="100" cy="100" rx="40" ry="25" fill="url(#breadGrad)" stroke="#D2691E" stroke-width="2"/>
  <ellipse cx="200" cy="100" rx="40" ry="25" fill="url(#breadGrad)" stroke="#D2691E" stroke-width="2"/>
  
  <!-- Garlic Butter -->
  <ellipse cx="100" cy="95" rx="35" ry="18" fill="#FFFFE0" opacity="0.8"/>
  <ellipse cx="200" cy="95" rx="35" ry="18" fill="#FFFFE0" opacity="0.8"/>
  
  <!-- Garlic Pieces -->
  <ellipse cx="90" cy="90" rx="3" ry="2" fill="#F5F5DC"/>
  <ellipse cx="110" cy="95" rx="3" ry="2" fill="#F5F5DC"/>
  <ellipse cx="95" cy="105" rx="3" ry="2" fill="#F5F5DC"/>
  <ellipse cx="190" cy="90" rx="3" ry="2" fill="#F5F5DC"/>
  <ellipse cx="210" cy="95" rx="3" ry="2" fill="#F5F5DC"/>
  <ellipse cx="195" cy="105" rx="3" ry="2" fill="#F5F5DC"/>
  
  <!-- Herbs (Parsley) -->
  <ellipse cx="105" cy="88" rx="2" ry="1" fill="#228B22"/>
  <ellipse cx="85" cy="100" rx="2" ry="1" fill="#228B22"/>
  <ellipse cx="115" cy="102" rx="2" ry="1" fill="#228B22"/>
  <ellipse cx="205" cy="88" rx="2" ry="1" fill="#228B22"/>
  <ellipse cx="185" cy="100" rx="2" ry="1" fill="#228B22"/>
  <ellipse cx="215" cy="102" rx="2" ry="1" fill="#228B22"/>
  
  <!-- Crust texture -->
  <ellipse cx="100" cy="85" rx="38" ry="5" fill="#D2691E" opacity="0.5"/>
  <ellipse cx="200" cy="85" rx="38" ry="5" fill="#D2691E" opacity="0.5"/>
  <ellipse cx="100" cy="115" rx="38" ry="5" fill="#D2691E" opacity="0.5"/>
  <ellipse cx="200" cy="115" rx="38" ry="5" fill="#D2691E" opacity="0.5"/>
</svg>
