<svg width="300" height="200" xmlns="http://www.w3.org/2000/svg">
  <defs>
    <linearGradient id="breadingGrad" x1="0%" y1="0%" x2="100%" y2="100%">
      <stop offset="0%" style="stop-color:#DAA520;stop-opacity:1" />
      <stop offset="100%" style="stop-color:#B8860B;stop-opacity:1" />
    </linearGradient>
  </defs>
  
  <!-- Background -->
  <rect width="300" height="200" fill="#F5F5F5"/>
  
  <!-- Plate -->
  <ellipse cx="150" cy="130" rx="80" ry="30" fill="#FFF" stroke="#DDD" stroke-width="2"/>
  
  <!-- Mozzarella Sticks -->
  <rect x="70" y="90" width="8" height="35" fill="url(#breadingGrad)" rx="4"/>
  <rect x="85" y="85" width="8" height="40" fill="url(#breadingGrad)" rx="4"/>
  <rect x="100" y="88" width="8" height="37" fill="url(#breadingGrad)" rx="4"/>
  <rect x="115" y="90" width="8" height="35" fill="url(#breadingGrad)" rx="4"/>
  <rect x="130" y="87" width="8" height="38" fill="url(#breadingGrad)" rx="4"/>
  <rect x="145" y="85" width="8" height="40" fill="url(#breadingGrad)" rx="4"/>
  <rect x="160" y="88" width="8" height="37" fill="url(#breadingGrad)" rx="4"/>
  <rect x="175" y="90" width="8" height="35" fill="url(#breadingGrad)" rx="4"/>
  <rect x="190" y="87" width="8" height="38" fill="url(#breadingGrad)" rx="4"/>
  <rect x="205" y="85" width="8" height="40" fill="url(#breadingGrad)" rx="4"/>
  <rect x="220" y="90" width="8" height="35" fill="url(#breadingGrad)" rx="4"/>
  
  <!-- Cheese inside (showing through cracks) -->
  <rect x="72" y="95" width="4" height="25" fill="#FFF8DC"/>
  <rect x="87" y="90" width="4" height="30" fill="#FFF8DC"/>
  <rect x="102" y="93" width="4" height="27" fill="#FFF8DC"/>
  <rect x="117" y="95" width="4" height="25" fill="#FFF8DC"/>
  <rect x="132" y="92" width="4" height="28" fill="#FFF8DC"/>
  <rect x="147" y="90" width="4" height="30" fill="#FFF8DC"/>
  <rect x="162" y="93" width="4" height="27" fill="#FFF8DC"/>
  <rect x="177" y="95" width="4" height="25" fill="#FFF8DC"/>
  <rect x="192" y="92" width="4" height="28" fill="#FFF8DC"/>
  <rect x="207" y="90" width="4" height="30" fill="#FFF8DC"/>
  <rect x="222" y="95" width="4" height="25" fill="#FFF8DC"/>
  
  <!-- Marinara Sauce Bowl -->
  <circle cx="60" cy="140" r="15" fill="#FF6347"/>
  <circle cx="60" cy="135" r="12" fill="#DC143C"/>
  
  <!-- Steam -->
  <path d="M74 85 Q76 80 74 75" stroke="#FFF" stroke-width="1" fill="none"/>
  <path d="M149 80 Q151 75 149 70" stroke="#FFF" stroke-width="1" fill="none"/>
  <path d="M224 85 Q226 80 224 75" stroke="#FFF" stroke-width="1" fill="none"/>
</svg>
