<svg width="300" height="200" xmlns="http://www.w3.org/2000/svg">
  <defs>
    <!-- Realistic vegetable gradients -->
    <radialGradient id="crustGrad" cx="50%" cy="30%" r="80%">
      <stop offset="0%" style="stop-color:#F5E6A3;stop-opacity:1" />
      <stop offset="100%" style="stop-color:#D4B886;stop-opacity:1" />
    </radialGradient>
    <radialGradient id="cheeseGrad" cx="40%" cy="30%" r="70%">
      <stop offset="0%" style="stop-color:#FFF8DC;stop-opacity:1" />
      <stop offset="100%" style="stop-color:#F5DEB3;stop-opacity:1" />
    </radialGradient>
    <radialGradient id="pepperGrad" cx="50%" cy="30%" r="60%">
      <stop offset="0%" style="stop-color:#FF6347;stop-opacity:1" />
      <stop offset="100%" style="stop-color:#DC143C;stop-opacity:1" />
    </radialGradient>
    <filter id="shadow" x="-50%" y="-50%" width="200%" height="200%">
      <feDropShadow dx="2" dy="3" stdDeviation="4" flood-color="#000" flood-opacity="0.4"/>
    </filter>
  </defs>
  
  <!-- Wood table background -->
  <rect width="300" height="200" fill="#8B4513"/>
  
  <!-- Pizza base/crust -->
  <circle cx="150" cy="100" r="85" fill="url(#crustGrad)" filter="url(#shadow)"/>
  <circle cx="150" cy="100" r="75" fill="#F5E6A3"/>
  
  <!-- Crust edge texture -->
  <circle cx="150" cy="100" r="85" fill="none" stroke="#D4B886" stroke-width="8"/>
  <circle cx="150" cy="100" r="77" fill="none" stroke="#E6D3A3" stroke-width="2"/>
  
  <!-- Tomato sauce base -->
  <circle cx="150" cy="100" r="70" fill="#DC143C" opacity="0.8"/>
  <circle cx="150" cy="100" r="68" fill="#FF6347" opacity="0.6"/>
  
  <!-- Melted mozzarella cheese -->
  <circle cx="150" cy="100" r="65" fill="url(#cheeseGrad)" opacity="0.9"/>
  <circle cx="150" cy="100" r="62" fill="#FFFACD" opacity="0.8"/>
  
  <!-- Bell pepper slices - Red -->
  <ellipse cx="130" cy="80" rx="8" ry="15" fill="url(#pepperGrad)" transform="rotate(25 130 80)" filter="url(#shadow)"/>
  <ellipse cx="170" cy="95" rx="9" ry="12" fill="url(#pepperGrad)" transform="rotate(-15 170 95)" filter="url(#shadow)"/>
  <ellipse cx="145" cy="125" rx="7" ry="14" fill="url(#pepperGrad)" transform="rotate(45 145 125)" filter="url(#shadow)"/>
  <ellipse cx="175" cy="120" rx="8" ry="13" fill="url(#pepperGrad)" transform="rotate(-30 175 120)" filter="url(#shadow)"/>
  
  <!-- Bell pepper slices - Yellow -->
  <ellipse cx="160" cy="75" rx="7" ry="12" fill="#FFD700" transform="rotate(60 160 75)" filter="url(#shadow)"/>
  <ellipse cx="125" cy="110" rx="8" ry="14" fill="#FFD700" transform="rotate(-20 125 110)" filter="url(#shadow)"/>
  <ellipse cx="165" cy="110" rx="6" ry="11" fill="#FFD700" transform="rotate(35 165 110)" filter="url(#shadow)"/>
  
  <!-- Bell pepper slices - Green -->
  <ellipse cx="140" cy="90" rx="7" ry="13" fill="#32CD32" transform="rotate(-40 140 90)" filter="url(#shadow)"/>
  <ellipse cx="180" cy="105" rx="8" ry="12" fill="#32CD32" transform="rotate(20 180 105)" filter="url(#shadow)"/>
  <ellipse cx="135" cy="115" rx="6" ry="10" fill="#32CD32" transform="rotate(70 135 115)" filter="url(#shadow)"/>
  
  <!-- Mushroom slices -->
  <ellipse cx="120" cy="90" rx="6" ry="8" fill="#DEB887" filter="url(#shadow)"/>
  <ellipse cx="155" cy="85" rx="7" ry="9" fill="#DEB887" filter="url(#shadow)"/>
  <ellipse cx="170" cy="130" rx="5" ry="7" fill="#DEB887" filter="url(#shadow)"/>
  <ellipse cx="140" cy="110" rx="6" ry="8" fill="#DEB887" filter="url(#shadow)"/>
  <ellipse cx="180" cy="115" rx="5" ry="6" fill="#DEB887" filter="url(#shadow)"/>
  <ellipse cx="115" cy="115" rx="7" ry="9" fill="#DEB887" filter="url(#shadow)"/>
  
  <!-- Mushroom stems/gills -->
  <g opacity="0.7">
    <ellipse cx="120" cy="90" rx="4" ry="6" fill="#CD853F"/>
    <ellipse cx="155" cy="85" rx="5" ry="7" fill="#CD853F"/>
    <ellipse cx="170" cy="130" rx="3" ry="5" fill="#CD853F"/>
    <ellipse cx="140" cy="110" rx="4" ry="6" fill="#CD853F"/>
    <ellipse cx="180" cy="115" rx="3" ry="4" fill="#CD853F"/>
    <ellipse cx="115" cy="115" rx="5" ry="7" fill="#CD853F"/>
  </g>
  
  <!-- Red onion slices -->
  <ellipse cx="145" cy="95" rx="10" ry="6" fill="#9370DB" opacity="0.8" filter="url(#shadow)"/>
  <ellipse cx="165" cy="105" rx="8" ry="5" fill="#9370DB" opacity="0.8" filter="url(#shadow)"/>
  <ellipse cx="130" cy="120" rx="9" ry="7" fill="#9370DB" opacity="0.8" filter="url(#shadow)"/>
  <ellipse cx="175" cy="85" rx="7" ry="4" fill="#9370DB" opacity="0.8" filter="url(#shadow)"/>
  
  <!-- Onion ring patterns -->
  <g opacity="0.6">
    <ellipse cx="145" cy="95" rx="8" ry="4" fill="none" stroke="#8A2BE2" stroke-width="0.5"/>
    <ellipse cx="165" cy="105" rx="6" ry="3" fill="none" stroke="#8A2BE2" stroke-width="0.5"/>
    <ellipse cx="130" cy="120" rx="7" ry="5" fill="none" stroke="#8A2BE2" stroke-width="0.5"/>
    <ellipse cx="175" cy="85" rx="5" ry="2" fill="none" stroke="#8A2BE2" stroke-width="0.5"/>
  </g>
  
  <!-- Black olives -->
  <circle cx="135" cy="85" r="3" fill="#2F2F2F" filter="url(#shadow)"/>
  <circle cx="170" cy="100" r="3.5" fill="#2F2F2F" filter="url(#shadow)"/>
  <circle cx="150" cy="115" r="3" fill="#2F2F2F" filter="url(#shadow)"/>
  <circle cx="125" cy="105" r="2.5" fill="#2F2F2F" filter="url(#shadow)"/>
  <circle cx="180" cy="90" r="3" fill="#2F2F2F" filter="url(#shadow)"/>
  <circle cx="160" cy="125" r="3.5" fill="#2F2F2F" filter="url(#shadow)"/>
  
  <!-- Olive shine -->
  <g opacity="0.8">
    <circle cx="136" cy="84" r="1" fill="#696969"/>
    <circle cx="171" cy="99" r="1.2" fill="#696969"/>
    <circle cx="151" cy="114" r="1" fill="#696969"/>
    <circle cx="126" cy="104" r="0.8" fill="#696969"/>
    <circle cx="181" cy="89" r="1" fill="#696969"/>
    <circle cx="161" cy="124" r="1.2" fill="#696969"/>
  </g>
  
  <!-- Cherry tomatoes -->
  <circle cx="155" cy="95" r="4" fill="#FF6347" filter="url(#shadow)"/>
  <circle cx="130" cy="100" r="3.5" fill="#FF6347" filter="url(#shadow)"/>
  <circle cx="175" cy="115" r="4.5" fill="#FF6347" filter="url(#shadow)"/>
  <circle cx="140" cy="125" r="3" fill="#FF6347" filter="url(#shadow)"/>
  
  <!-- Tomato highlights -->
  <g opacity="0.7">
    <circle cx="156" cy="94" r="1.5" fill="#FF7F50"/>
    <circle cx="131" cy="99" r="1.2" fill="#FF7F50"/>
    <circle cx="176" cy="114" r="1.8" fill="#FF7F50"/>
    <circle cx="141" cy="124" r="1" fill="#FF7F50"/>
  </g>
  
  <!-- Extra melted cheese on top -->
  <ellipse cx="150" cy="95" rx="18" ry="10" fill="#FFFACD" opacity="0.6"/>
  <ellipse cx="140" cy="105" rx="12" ry="6" fill="#FFFACD" opacity="0.6"/>
  <ellipse cx="165" cy="105" rx="15" ry="8" fill="#FFFACD" opacity="0.6"/>
  
  <!-- Cheese browning spots -->
  <circle cx="135" cy="75" r="2.5" fill="#DEB887" opacity="0.7"/>
  <circle cx="170" cy="80" r="2" fill="#DEB887" opacity="0.7"/>
  <circle cx="145" cy="130" r="3" fill="#DEB887" opacity="0.7"/>
  <circle cx="175" cy="125" r="2.5" fill="#DEB887" opacity="0.7"/>
  <circle cx="115" cy="100" r="1.5" fill="#DEB887" opacity="0.7"/>
  <circle cx="185" cy="105" r="2" fill="#DEB887" opacity="0.7"/>
  
  <!-- Fresh basil leaves -->
  <ellipse cx="148" cy="88" rx="4" ry="2" fill="#228B22" transform="rotate(30 148 88)"/>
  <ellipse cx="172" cy="108" rx="3.5" ry="1.8" fill="#228B22" transform="rotate(-20 172 108)"/>
  <ellipse cx="128" cy="115" rx="4" ry="2.2" fill="#228B22" transform="rotate(50 128 115)"/>
  
  <!-- Basil leaf veins -->
  <g opacity="0.6">
    <path d="M146 88 L150 88" stroke="#006400" stroke-width="0.3"/>
    <path d="M170 108 L174 108" stroke="#006400" stroke-width="0.3"/>
    <path d="M126 115 L130 115" stroke="#006400" stroke-width="0.3"/>
  </g>
  
  <!-- Steam effects -->
  <g opacity="0.4">
    <path d="M130 60 Q135 50 130 40" stroke="#F5F5F5" stroke-width="1.5" fill="none"/>
    <path d="M150 55 Q155 45 150 35" stroke="#F5F5F5" stroke-width="1.5" fill="none"/>
    <path d="M170 60 Q175 50 170 40" stroke="#F5F5F5" stroke-width="1.5" fill="none"/>
  </g>
  
  <!-- Scattered flour on table -->
  <g opacity="0.3">
    <circle cx="50" cy="180" r="2" fill="#F5F5F5"/>
    <circle cx="80" cy="170" r="1.5" fill="#F5F5F5"/>
    <circle cx="250" cy="175" r="2.5" fill="#F5F5F5"/>
    <circle cx="220" cy="165" r="1.8" fill="#F5F5F5"/>
    <circle cx="270" cy="185" r="1.2" fill="#F5F5F5"/>
  </g>
  
  <!-- Wood grain texture -->
  <g opacity="0.2">
    <rect x="0" y="150" width="300" height="2" fill="#654321"/>
    <rect x="0" y="170" width="300" height="3" fill="#654321"/>
    <rect x="0" y="190" width="300" height="2" fill="#654321"/>
  </g>
</svg>
