<svg width="300" height="200" xmlns="http://www.w3.org/2000/svg">
  <defs>
    <radialGradient id="pizzaGrad" cx="50%" cy="50%" r="50%">
      <stop offset="0%" style="stop-color:#FFD700;stop-opacity:1" />
      <stop offset="100%" style="stop-color:#DAA520;stop-opacity:1" />
    </radialGradient>
  </defs>
  
  <!-- Background -->
  <rect width="300" height="200" fill="#F5F5F5"/>
  
  <!-- Pizza Base -->
  <circle cx="150" cy="100" r="70" fill="url(#pizzaGrad)" stroke="#D4AF37" stroke-width="3"/>
  
  <!-- Tomato Sauce -->
  <circle cx="150" cy="100" r="65" fill="#FF6347" opacity="0.7"/>
  
  <!-- Pepperoni -->
  <circle cx="125" cy="80" r="6" fill="#DC143C"/>
  <circle cx="175" cy="85" r="6" fill="#DC143C"/>
  <circle cx="140" cy="110" r="6" fill="#DC143C"/>
  <circle cx="170" cy="115" r="6" fill="#DC143C"/>
  
  <!-- Sausage pieces -->
  <ellipse cx="130" cy="100" rx="8" ry="4" fill="#8B4513"/>
  <ellipse cx="165" cy="95" rx="7" ry="4" fill="#8B4513"/>
  <ellipse cx="155" cy="120" rx="6" ry="3" fill="#8B4513"/>
  
  <!-- Bell Peppers -->
  <ellipse cx="145" cy="85" rx="5" ry="3" fill="#228B22"/>
  <ellipse cx="160" cy="105" rx="4" ry="3" fill="#FF6347"/>
  <ellipse cx="135" cy="120" rx="5" ry="3" fill="#FFD700"/>
  
  <!-- Onions -->
  <ellipse cx="120" cy="105" rx="4" ry="2" fill="#F5F5DC" opacity="0.8"/>
  <ellipse cx="180" cy="100" rx="4" ry="2" fill="#F5F5DC" opacity="0.8"/>
  
  <!-- Mushrooms -->
  <ellipse cx="155" cy="90" rx="4" ry="3" fill="#8B7355"/>
  <ellipse cx="140" cy="125" rx="3" ry="2" fill="#8B7355"/>
  
  <!-- Cheese -->
  <path d="M115 85 Q150 90 185 85" stroke="#FFF8DC" stroke-width="2" fill="none"/>
  <path d="M120 110 Q155 115 190 110" stroke="#FFF8DC" stroke-width="2" fill="none"/>
</svg>
