<svg width="300" height="200" xmlns="http://www.w3.org/2000/svg">
  <defs>
    <radialGradient id="pizzaGrad" cx="50%" cy="50%" r="50%">
      <stop offset="0%" style="stop-color:#FFD700;stop-opacity:1" />
      <stop offset="100%" style="stop-color:#DAA520;stop-opacity:1" />
    </radialGradient>
  </defs>
  
  <!-- Background -->
  <rect width="300" height="200" fill="#F5F5F5"/>
  
  <!-- Pizza Base -->
  <circle cx="150" cy="100" r="70" fill="url(#pizzaGrad)" stroke="#D4AF37" stroke-width="3"/>
  
  <!-- Tomato Sauce -->
  <circle cx="150" cy="100" r="65" fill="#FF6347" opacity="0.7"/>
  
  <!-- Pepperoni -->
  <circle cx="130" cy="80" r="8" fill="#DC143C"/>
  <circle cx="170" cy="85" r="8" fill="#DC143C"/>
  <circle cx="145" cy="105" r="8" fill="#DC143C"/>
  <circle cx="165" cy="115" r="8" fill="#DC143C"/>
  <circle cx="125" cy="110" r="8" fill="#DC143C"/>
  <circle cx="155" cy="75" r="8" fill="#DC143C"/>
  <circle cx="175" cy="105" r="8" fill="#DC143C"/>
  <circle cx="135" cy="125" r="8" fill="#DC143C"/>
  <circle cx="160" cy="95" r="8" fill="#DC143C"/>
  <circle cx="120" cy="95" r="8" fill="#DC143C"/>
  
  <!-- Pepperoni darker edges -->
  <circle cx="130" cy="80" r="6" fill="#B22222"/>
  <circle cx="170" cy="85" r="6" fill="#B22222"/>
  <circle cx="145" cy="105" r="6" fill="#B22222"/>
  <circle cx="165" cy="115" r="6" fill="#B22222"/>
  <circle cx="125" cy="110" r="6" fill="#B22222"/>
  <circle cx="155" cy="75" r="6" fill="#B22222"/>
  <circle cx="175" cy="105" r="6" fill="#B22222"/>
  <circle cx="135" cy="125" r="6" fill="#B22222"/>
  <circle cx="160" cy="95" r="6" fill="#B22222"/>
  <circle cx="120" cy="95" r="6" fill="#B22222"/>
  
  <!-- Cheese Strings -->
  <path d="M115 85 Q150 90 185 85" stroke="#FFF8DC" stroke-width="3" fill="none"/>
  <path d="M120 110 Q155 115 190 110" stroke="#FFF8DC" stroke-width="3" fill="none"/>
</svg>
