<svg width="300" height="200" xmlns="http://www.w3.org/2000/svg">
  <defs>
    <!-- Realistic burger gradients -->
    <radialGradient id="bunGrad" cx="50%" cy="30%" r="70%">
      <stop offset="0%" style="stop-color:#F4E4BC;stop-opacity:1" />
      <stop offset="50%" style="stop-color:#DEB887;stop-opacity:1" />
      <stop offset="100%" style="stop-color:#CD853F;stop-opacity:1" />
    </radialGradient>
    <radialGradient id="pattyGrad" cx="40%" cy="30%" r="80%">
      <stop offset="0%" style="stop-color:#A0522D;stop-opacity:1" />
      <stop offset="100%" style="stop-color:#654321;stop-opacity:1" />
    </radialGradient>
    <filter id="shadow" x="-50%" y="-50%" width="200%" height="200%">
      <feDropShadow dx="2" dy="3" stdDeviation="2" flood-color="#000" flood-opacity="0.3"/>
    </filter>
    <filter id="texture" x="-20%" y="-20%" width="140%" height="140%">
      <feTurbulence baseFrequency="0.9" numOctaves="4" result="noise"/>
      <feDisplacementMap in="SourceGraphic" in2="noise" scale="1"/>
    </filter>
  </defs>
  
  <!-- Restaurant kitchen background -->
  <rect width="300" height="200" fill="#2F2F2F"/>
  
  <!-- Wooden serving board -->
  <ellipse cx="150" cy="130" rx="90" ry="30" fill="#8B4513" filter="url(#shadow)"/>
  <ellipse cx="150" cy="125" rx="90" ry="25" fill="#D2691E"/>
  <ellipse cx="150" cy="125" rx="85" ry="20" fill="#DEB887" opacity="0.8"/>
  
  <!-- Burger construction from bottom up -->
  
  <!-- Bottom Bun -->
  <ellipse cx="150" cy="120" rx="45" ry="12" fill="url(#bunGrad)" filter="url(#shadow)"/>
  <ellipse cx="150" cy="118" rx="45" ry="10" fill="#F4E4BC"/>
  
  <!-- Lettuce layer -->
  <ellipse cx="150" cy="115" rx="42" ry="6" fill="#90EE90" opacity="0.9"/>
  <ellipse cx="150" cy="115" rx="40" ry="5" fill="#98FB98"/>
  <!-- Lettuce texture -->
  <path d="M110 115 Q130 112 150 115 Q170 112 190 115" stroke="#228B22" stroke-width="0.5" fill="none" opacity="0.6"/>
  <path d="M115 117 Q135 114 155 117 Q175 114 185 117" stroke="#228B22" stroke-width="0.5" fill="none" opacity="0.6"/>
  
  <!-- Tomato slices -->
  <ellipse cx="140" cy="112" rx="8" ry="3" fill="#FF6347"/>
  <ellipse cx="160" cy="112" rx="8" ry="3" fill="#FF6347"/>
  <circle cx="140" cy="112" r="1" fill="#FF0000" opacity="0.7"/>
  <circle cx="160" cy="112" r="1" fill="#FF0000" opacity="0.7"/>
  
  <!-- Beef Patty with realistic texture -->
  <ellipse cx="150" cy="108" rx="38" ry="8" fill="url(#pattyGrad)" filter="url(#shadow)"/>
  <!-- Grill marks -->
  <path d="M115 108 L185 108" stroke="#2F1B14" stroke-width="1" opacity="0.8"/>
  <path d="M120 106 L180 106" stroke="#2F1B14" stroke-width="0.8" opacity="0.6"/>
  <path d="M120 110 L180 110" stroke="#2F1B14" stroke-width="0.8" opacity="0.6"/>
  <!-- Patty edges -->
  <ellipse cx="150" cy="108" rx="38" ry="8" fill="none" stroke="#4A4A4A" stroke-width="1" opacity="0.5"/>
  
  <!-- Melted Cheese -->
  <ellipse cx="150" cy="104" rx="40" ry="5" fill="#FFD700" opacity="0.9"/>
  <ellipse cx="150" cy="104" rx="38" ry="4" fill="#FFF8DC"/>
  <!-- Cheese drip -->
  <path d="M130 106 Q125 108 120 106" stroke="#FFD700" stroke-width="2" fill="none" opacity="0.8"/>
  <path d="M170 106 Q175 108 180 106" stroke="#FFD700" stroke-width="2" fill="none" opacity="0.8"/>
  
  <!-- Pickles -->
  <ellipse cx="135" cy="102" rx="4" ry="2" fill="#9ACD32"/>
  <ellipse cx="165" cy="102" rx="4" ry="2" fill="#9ACD32"/>
  <circle cx="135" cy="102" r="1" fill="#6B8E23" opacity="0.7"/>
  <circle cx="165" cy="102" r="1" fill="#6B8E23" opacity="0.7"/>
  
  <!-- Onion rings -->
  <circle cx="145" cy="100" r="3" fill="none" stroke="#F0E68C" stroke-width="1.5"/>
  <circle cx="155" cy="100" r="3" fill="none" stroke="#F0E68C" stroke-width="1.5"/>
  
  <!-- Top Bun -->
  <ellipse cx="150" cy="95" rx="43" ry="15" fill="url(#bunGrad)" filter="url(#shadow)"/>
  <ellipse cx="150" cy="93" rx="43" ry="13" fill="#F4E4BC"/>
  
  <!-- Sesame Seeds -->
  <ellipse cx="135" cy="90" rx="1.5" ry="1" fill="#FFF8DC"/>
  <ellipse cx="150" cy="88" rx="1.5" ry="1" fill="#FFF8DC"/>
  <ellipse cx="165" cy="90" rx="1.5" ry="1" fill="#FFF8DC"/>
  <ellipse cx="143" cy="92" rx="1" ry="0.8" fill="#FFF8DC"/>
  <ellipse cx="157" cy="92" rx="1" ry="0.8" fill="#FFF8DC"/>
  <ellipse cx="128" cy="92" rx="1" ry="0.8" fill="#FFF8DC"/>
  <ellipse cx="172" cy="92" rx="1" ry="0.8" fill="#FFF8DC"/>
  
  <!-- French Fries on the side -->
  <g transform="translate(220, 90)">
    <rect x="-2" y="0" width="4" height="25" fill="#FFD700" rx="2" filter="url(#shadow)"/>
    <rect x="4" y="-3" width="4" height="28" fill="#FFD700" rx="2" filter="url(#shadow)"/>
    <rect x="10" y="2" width="4" height="23" fill="#FFD700" rx="2" filter="url(#shadow)"/>
    <rect x="16" y="-1" width="4" height="26" fill="#FFD700" rx="2" filter="url(#shadow)"/>
    <rect x="22" y="3" width="4" height="22" fill="#FFD700" rx="2" filter="url(#shadow)"/>
    <!-- Salt on fries -->
    <circle cx="5" cy="5" r="0.5" fill="#FFFFFF" opacity="0.8"/>
    <circle cx="15" cy="8" r="0.5" fill="#FFFFFF" opacity="0.8"/>
    <circle cx="10" cy="12" r="0.5" fill="#FFFFFF" opacity="0.8"/>
  </g>
  
  <!-- Ketchup container -->
  <rect x="60" y="110" width="8" height="15" fill="#FF0000" rx="2"/>
  <rect x="61" y="108" width="6" height="3" fill="#FFD700" rx="1"/>
  
  <!-- Steam rising from burger -->
  <path d="M135 80 Q137 75 135 70 Q133 65 135 60" stroke="#FFFFFF" stroke-width="1" fill="none" opacity="0.5"/>
  <path d="M150 80 Q152 75 150 70 Q148 65 150 60" stroke="#FFFFFF" stroke-width="1" fill="none" opacity="0.5"/>
  <path d="M165 80 Q167 75 165 70 Q163 65 165 60" stroke="#FFFFFF" stroke-width="1" fill="none" opacity="0.5"/>
  
  <!-- Kitchen lighting -->
  <circle cx="80" cy="40" r="25" fill="#FFD700" opacity="0.1"/>
  <circle cx="220" cy="35" r="20" fill="#FFD700" opacity="0.1"/>
</svg>
