<svg width="300" height="200" xmlns="http://www.w3.org/2000/svg">
  <defs>
    <!-- Realistic sushi gradients -->
    <radialGradient id="riceGrad" cx="50%" cy="30%" r="70%">
      <stop offset="0%" style="stop-color:#FFFEF0;stop-opacity:1" />
      <stop offset="100%" style="stop-color:#F5F5DC;stop-opacity:1" />
    </radialGradient>
    <radialGradient id="salmonGrad" cx="40%" cy="30%" r="80%">
      <stop offset="0%" style="stop-color:#FFA07A;stop-opacity:1" />
      <stop offset="100%" style="stop-color:#CD5C5C;stop-opacity:1" />
    </radialGradient>
    <radialGradient id="tunaGrad" cx="40%" cy="30%" r="80%">
      <stop offset="0%" style="stop-color:#DC143C;stop-opacity:1" />
      <stop offset="100%" style="stop-color:#8B0000;stop-opacity:1" />
    </radialGradient>
    <filter id="shadow" x="-50%" y="-50%" width="200%" height="200%">
      <feDropShadow dx="1" dy="2" stdDeviation="2" flood-color="#000" flood-opacity="0.3"/>
    </filter>
    <filter id="woodGrain">
      <feTurbulence baseFrequency="0.04" numOctaves="5" result="noise"/>
      <feColorMatrix in="noise" type="saturate" values="0"/>
    </filter>
  </defs>
  
  <!-- Traditional Japanese restaurant background -->
  <rect width="300" height="200" fill="#1A1A1A"/>
  
  <!-- Bamboo mat texture -->
  <rect x="0" y="80" width="300" height="120" fill="#8B7355"/>
  <g opacity="0.3">
    <rect x="0" y="85" width="300" height="2" fill="#654321"/>
    <rect x="0" y="95" width="300" height="2" fill="#654321"/>
    <rect x="0" y="105" width="300" height="2" fill="#654321"/>
    <rect x="0" y="115" width="300" height="2" fill="#654321"/>
    <rect x="0" y="125" width="300" height="2" fill="#654321"/>
    <rect x="0" y="135" width="300" height="2" fill="#654321"/>
  </g>
  
  <!-- Black sushi plate -->
  <ellipse cx="150" cy="110" rx="85" ry="25" fill="#2F2F2F" filter="url(#shadow)"/>
  <ellipse cx="150" cy="105" rx="85" ry="20" fill="#000000"/>
  <ellipse cx="150" cy="105" rx="80" ry="18" fill="#1A1A1A"/>
  
  <!-- Sushi Roll 1 - Salmon Roll -->
  <g transform="translate(120, 95)">
    <circle r="15" fill="#000000" filter="url(#shadow)"/>
    <circle r="14" fill="url(#riceGrad)"/>
    <circle r="11" fill="#2F4F2F"/> <!-- Nori -->
    <circle r="9" fill="url(#salmonGrad)"/>
    <circle r="6" fill="#90EE90"/> <!-- Cucumber -->
    <circle r="3" fill="url(#riceGrad)"/>
    <!-- Rice grain texture -->
    <circle cx="-8" cy="-3" r="0.5" fill="#F0F0F0" opacity="0.8"/>
    <circle cx="6" cy="-5" r="0.5" fill="#F0F0F0" opacity="0.8"/>
    <circle cx="-2" cy="8" r="0.5" fill="#F0F0F0" opacity="0.8"/>
  </g>
  
  <!-- Sushi Roll 2 - Tuna Roll -->
  <g transform="translate(150, 95)">
    <circle r="15" fill="#000000" filter="url(#shadow)"/>
    <circle r="14" fill="url(#riceGrad)"/>
    <circle r="11" fill="#2F4F2F"/> <!-- Nori -->
    <circle r="9" fill="url(#tunaGrad)"/>
    <circle r="6" fill="#FFD700"/> <!-- Pickled radish -->
    <circle r="3" fill="url(#riceGrad)"/>
    <!-- Rice grain texture -->
    <circle cx="-7" cy="-4" r="0.5" fill="#F0F0F0" opacity="0.8"/>
    <circle cx="8" cy="-2" r="0.5" fill="#F0F0F0" opacity="0.8"/>
    <circle cx="-3" cy="7" r="0.5" fill="#F0F0F0" opacity="0.8"/>
  </g>
  
  <!-- Sushi Roll 3 - California Roll -->
  <g transform="translate(180, 95)">
    <circle r="15" fill="#000000" filter="url(#shadow)"/>
    <circle r="14" fill="url(#riceGrad)"/>
    <circle r="11" fill="#2F4F2F"/> <!-- Nori -->
    <circle r="9" fill="#FFA500"/> <!-- Crab -->
    <circle r="6" fill="#32CD32"/> <!-- Avocado -->
    <circle r="3" fill="url(#riceGrad)"/>
    <!-- Sesame seeds -->
    <circle cx="-10" cy="-2" r="0.8" fill="#F5DEB3"/>
    <circle cx="8" cy="-6" r="0.8" fill="#F5DEB3"/>
    <circle cx="-4" cy="9" r="0.8" fill="#F5DEB3"/>
    <circle cx="6" cy="8" r="0.8" fill="#F5DEB3"/>
  </g>
  
  <!-- Nigiri 1 - Salmon -->
  <g transform="translate(110, 120)">
    <ellipse rx="14" ry="8" fill="url(#riceGrad)" filter="url(#shadow)"/>
    <ellipse rx="14" ry="6" fill="url(#salmonGrad)" transform="translate(0, -3)"/>
    <!-- Fish texture lines -->
    <path d="M-10 -3 Q0 -5 10 -3" stroke="#CD5C5C" stroke-width="0.5" fill="none" opacity="0.6"/>
    <path d="M-12 -1 Q0 -3 12 -1" stroke="#CD5C5C" stroke-width="0.5" fill="none" opacity="0.6"/>
  </g>
  
  <!-- Nigiri 2 - Tuna -->
  <g transform="translate(190, 120)">
    <ellipse rx="14" ry="8" fill="url(#riceGrad)" filter="url(#shadow)"/>
    <ellipse rx="14" ry="6" fill="url(#tunaGrad)" transform="translate(0, -3)"/>
    <!-- Fish texture lines -->
    <path d="M-10 -3 Q0 -5 10 -3" stroke="#8B0000" stroke-width="0.5" fill="none" opacity="0.6"/>
    <path d="M-12 -1 Q0 -3 12 -1" stroke="#8B0000" stroke-width="0.5" fill="none" opacity="0.6"/>
  </g>
  
  <!-- Chopsticks -->
  <g transform="translate(60, 80)">
    <rect x="0" y="0" width="2" height="60" fill="#8B4513" transform="rotate(20)" filter="url(#shadow)"/>
    <rect x="5" y="0" width="2" height="60" fill="#8B4513" transform="rotate(20)" filter="url(#shadow)"/>
    <!-- Wood grain detail -->
    <rect x="0" y="10" width="2" height="1" fill="#654321" transform="rotate(20)" opacity="0.5"/>
    <rect x="5" y="15" width="2" height="1" fill="#654321" transform="rotate(20)" opacity="0.5"/>
  </g>
  
  <!-- Wasabi -->
  <ellipse cx="220" cy="105" rx="6" ry="4" fill="#9ACD32"/>
  <ellipse cx="220" cy="104" rx="4" ry="3" fill="#32CD32"/>
  
  <!-- Pickled Ginger -->
  <g transform="translate(240, 110)">
    <ellipse rx="8" ry="3" fill="#FFB6C1" opacity="0.8"/>
    <ellipse rx="6" ry="2" fill="#FFC0CB" opacity="0.9"/>
    <ellipse rx="4" ry="1" fill="#FFCCCB"/>
  </g>
  
  <!-- Soy sauce dish -->
  <ellipse cx="80" cy="125" rx="12" ry="8" fill="#2F2F2F" filter="url(#shadow)"/>
  <ellipse cx="80" cy="123" rx="10" ry="6" fill="#1A1A1A"/>
  <ellipse cx="80" cy="123" rx="8" ry="4" fill="#8B4513"/> <!-- Soy sauce -->
  
  <!-- Ambient lighting -->
  <circle cx="50" cy="30" r="25" fill="#FFD700" opacity="0.08"/>
  <circle cx="250" cy="25" r="20" fill="#FFD700" opacity="0.08"/>
  
  <!-- Paper lantern glow -->
  <circle cx="150" cy="20" r="30" fill="#FF6B35" opacity="0.05"/>
</svg>
