<svg width="300" height="200" xmlns="http://www.w3.org/2000/svg">
  <defs>
    <!-- Realistic Asian cuisine gradients -->
    <radialGradient id="riceGrad" cx="50%" cy="30%" r="80%">
      <stop offset="0%" style="stop-color:#FFFEF8;stop-opacity:1" />
      <stop offset="100%" style="stop-color:#F5F5DC;stop-opacity:1" />
    </radialGradient>
    <radialGradient id="chickenGrad" cx="40%" cy="30%" r="70%">
      <stop offset="0%" style="stop-color:#DEB887;stop-opacity:1" />
      <stop offset="100%" style="stop-color:#CD853F;stop-opacity:1" />
    </radialGradient>
    <radialGradient id="sauceGrad" cx="30%" cy="30%" r="80%">
      <stop offset="0%" style="stop-color:#8B0000;stop-opacity:1" />
      <stop offset="100%" style="stop-color:#4A0000;stop-opacity:1" />
    </radialGradient>
    <filter id="shadow" x="-50%" y="-50%" width="200%" height="200%">
      <feDropShadow dx="2" dy="3" stdDeviation="4" flood-color="#000" flood-opacity="0.5"/>
    </filter>
    <filter id="steam">
      <feTurbulence baseFrequency="0.1" numOctaves="2" result="noise"/>
      <feDisplacementMap in="SourceGraphic" in2="noise" scale="2"/>
    </filter>
  </defs>
  
  <!-- Traditional Chinese restaurant background -->
  <rect width="300" height="200" fill="#8B0000"/>
  
  <!-- Chinese restaurant wall with traditional patterns -->
  <rect x="0" y="0" width="300" height="80" fill="#CD853F"/>
  <g opacity="0.4">
    <!-- Dragon pattern elements -->
    <circle cx="50" cy="20" r="8" fill="#FFD700"/>
    <circle cx="100" cy="30" r="6" fill="#FF6347"/>
    <circle cx="150" cy="15" r="7" fill="#FFD700"/>
    <circle cx="200" cy="25" r="6" fill="#FF6347"/>
    <circle cx="250" cy="20" r="8" fill="#FFD700"/>
    <!-- Traditional Chinese cloud patterns -->
    <path d="M20 40 Q30 35 40 40 Q35 45 30 50 Q25 45 20 40" fill="#FFD700" opacity="0.6"/>
    <path d="M260 40 Q270 35 280 40 Q275 45 270 50 Q265 45 260 40" fill="#FFD700" opacity="0.6"/>
  </g>
  
  <!-- Wooden table surface -->
  <rect x="0" y="80" width="300" height="120" fill="#654321"/>
  <g opacity="0.3">
    <rect x="0" y="85" width="300" height="2" fill="#8B4513"/>
    <rect x="0" y="95" width="300" height="3" fill="#8B4513"/>
    <rect x="0" y="110" width="300" height="2" fill="#8B4513"/>
    <rect x="0" y="125" width="300" height="3" fill="#8B4513"/>
  </g>
  
  <!-- Large serving plate with Chinese design -->
  <ellipse cx="150" cy="120" rx="100" ry="30" fill="#000000" opacity="0.4" filter="url(#shadow)"/>
  <ellipse cx="150" cy="115" rx="95" ry="25" fill="#FFFFFF"/>
  <ellipse cx="150" cy="115" rx="90" ry="22" fill="#F8F8FF"/>
  <!-- Traditional blue and white pattern -->
  <g opacity="0.6">
    <circle cx="150" cy="115" r="60" fill="none" stroke="#4169E1" stroke-width="1"/>
    <circle cx="150" cy="115" r="45" fill="none" stroke="#4169E1" stroke-width="0.5"/>
    <path d="M120 115 Q135 105 150 115 Q165 105 180 115" stroke="#4169E1" stroke-width="0.5" fill="none"/>
  </g>
  
  <!-- General Tso's Chicken -->
  <g transform="translate(130, 100)">
    <!-- Chicken pieces -->
    <ellipse rx="12" ry="8" fill="url(#chickenGrad)" filter="url(#shadow)"/>
    <ellipse rx="10" ry="6" fill="#F4A460" transform="translate(-8, -5)"/>
    <ellipse rx="9" ry="7" fill="#F4A460" transform="translate(8, -3)"/>
    <ellipse rx="8" ry="6" fill="#F4A460" transform="translate(-3, 5)"/>
    <!-- Crispy coating texture -->
    <circle cx="-8" cy="-3" r="1" fill="#DEB887" opacity="0.8"/>
    <circle cx="6" cy="-2" r="1" fill="#DEB887" opacity="0.8"/>
    <circle cx="-2" cy="4" r="1" fill="#DEB887" opacity="0.8"/>
    <circle cx="8" cy="2" r="1" fill="#DEB887" opacity="0.8"/>
    <!-- Sweet and sour sauce glaze -->
    <ellipse rx="11" ry="7" fill="url(#sauceGrad)" opacity="0.6"/>
    <ellipse rx="9" ry="5" fill="#DC143C" opacity="0.4"/>
  </g>
  
  <!-- Fried Rice -->
  <g transform="translate(180, 105)">
    <!-- Rice base -->
    <ellipse rx="25" ry="15" fill="url(#riceGrad)" filter="url(#shadow)"/>
    <!-- Individual rice grains -->
    <circle cx="-15" cy="-5" r="0.8" fill="#F5F5DC"/>
    <circle cx="-8" cy="-8" r="0.8" fill="#F5F5DC"/>
    <circle cx="5" cy="-6" r="0.8" fill="#F5F5DC"/>
    <circle cx="12" cy="-3" r="0.8" fill="#F5F5DC"/>
    <circle cx="-12" cy="3" r="0.8" fill="#F5F5DC"/>
    <circle cx="0" cy="5" r="0.8" fill="#F5F5DC"/>
    <circle cx="15" cy="8" r="0.8" fill="#F5F5DC"/>
    <!-- Egg pieces -->
    <ellipse cx="-10" cy="0" rx="3" ry="2" fill="#FFD700"/>
    <ellipse cx="8" cy="-2" rx="4" ry="2" fill="#FFD700"/>
    <!-- Green onions -->
    <rect x="-5" y="-10" width="1" height="4" fill="#228B22"/>
    <rect x="3" y="-8" width="1" height="3" fill="#228B22"/>
    <rect x="10" y="-5" width="1" height="3" fill="#228B22"/>
    <!-- Peas -->
    <circle cx="-8" cy="5" r="1" fill="#32CD32"/>
    <circle cx="5" cy="3" r="1" fill="#32CD32"/>
    <circle cx="12" cy="6" r="1" fill="#32CD32"/>
    <!-- Carrot pieces -->
    <circle cx="-15" cy="8" r="1" fill="#FF8C00"/>
    <circle cx="7" cy="8" r="1" fill="#FF8C00"/>
  </g>
  
  <!-- Spring Rolls -->
  <g transform="translate(100, 115)">
    <!-- Spring roll 1 -->
    <ellipse rx="18" ry="6" fill="#F5DEB3" filter="url(#shadow)"/>
    <ellipse rx="16" ry="4" fill="#DEB887"/>
    <!-- Crispy texture lines -->
    <path d="M-12 0 L12 0" stroke="#CD853F" stroke-width="0.5"/>
    <path d="M-10 -2 L10 -2" stroke="#CD853F" stroke-width="0.3"/>
    <path d="M-10 2 L10 2" stroke="#CD853F" stroke-width="0.3"/>
    
    <!-- Spring roll 2 -->
    <ellipse rx="16" ry="5" fill="#F5DEB3" transform="translate(0, 12)" filter="url(#shadow)"/>
    <ellipse rx="14" ry="3" fill="#DEB887" transform="translate(0, 12)"/>
    <!-- Crispy texture lines -->
    <path d="M-10 12 L10 12" stroke="#CD853F" stroke-width="0.5"/>
    <path d="M-8 10 L8 10" stroke="#CD853F" stroke-width="0.3"/>
    <path d="M-8 14 L8 14" stroke="#CD853F" stroke-width="0.3"/>
  </g>
  
  <!-- Sweet and Sour Sauce bowl -->
  <g transform="translate(80, 135)">
    <ellipse rx="15" ry="10" fill="#8B0000" filter="url(#shadow)"/>
    <ellipse rx="13" ry="8" fill="url(#sauceGrad)"/>
    <!-- Sauce bubbles -->
    <circle cx="-5" cy="-2" r="1" fill="#DC143C" opacity="0.8"/>
    <circle cx="3" cy="1" r="0.8" fill="#DC143C" opacity="0.8"/>
    <circle cx="-2" cy="3" r="0.6" fill="#DC143C" opacity="0.8"/>
  </g>
  
  <!-- Soy sauce dish -->
  <g transform="translate(220, 135)">
    <ellipse rx="12" ry="8" fill="#2F2F2F" filter="url(#shadow)"/>
    <ellipse rx="10" ry="6" fill="#1A1A1A"/>
    <ellipse rx="8" ry="4" fill="#654321"/> <!-- Soy sauce -->
  </g>
  
  <!-- Chopsticks -->
  <g transform="translate(50, 85)">
    <rect x="0" y="0" width="2" height="70" fill="#8B4513" transform="rotate(25)" filter="url(#shadow)"/>
    <rect x="5" y="0" width="2" height="70" fill="#8B4513" transform="rotate(25)" filter="url(#shadow)"/>
    <!-- Lacquered finish -->
    <rect x="0" y="5" width="2" height="60" fill="#CD853F" transform="rotate(25)" opacity="0.7"/>
    <rect x="5" y="5" width="2" height="60" fill="#CD853F" transform="rotate(25)" opacity="0.7"/>
  </g>
  
  <!-- Chinese tea cup -->
  <g transform="translate(240, 90)">
    <ellipse rx="8" ry="12" fill="#FFFFFF" filter="url(#shadow)"/>
    <ellipse rx="6" ry="10" fill="#F8F8FF"/>
    <!-- Tea -->
    <ellipse rx="5" ry="3" fill="#8B4513" transform="translate(0, 5)"/>
    <!-- Handle -->
    <path d="M8 0 Q15 0 15 8 Q15 12 10 12" stroke="#FFFFFF" stroke-width="2" fill="none"/>
    <!-- Traditional blue pattern -->
    <circle cx="0" cy="-5" r="2" fill="none" stroke="#4169E1" stroke-width="0.5"/>
    <path d="M-3 -5 Q0 -8 3 -5" stroke="#4169E1" stroke-width="0.5" fill="none"/>
  </g>
  
  <!-- Fortune cookies -->
  <g transform="translate(120, 140)">
    <path d="M0 0 Q-5 -3 -8 0 Q-5 3 0 0 Q5 -3 8 0 Q5 3 0 0" fill="#F5DEB3" filter="url(#shadow)"/>
    <path d="M0 0 Q-4 -2 -6 0 Q-4 2 0 0 Q4 -2 6 0 Q4 2 0 0" fill="#DEB887"/>
    <!-- Paper slip -->
    <rect x="-1" y="-1" width="2" height="3" fill="#FFFFFF" opacity="0.8"/>
  </g>
  
  <g transform="translate(180, 140)">
    <path d="M0 0 Q-5 -3 -8 0 Q-5 3 0 0 Q5 -3 8 0 Q5 3 0 0" fill="#F5DEB3" filter="url(#shadow)"/>
    <path d="M0 0 Q-4 -2 -6 0 Q-4 2 0 0 Q4 -2 6 0 Q4 2 0 0" fill="#DEB887"/>
    <!-- Paper slip -->
    <rect x="-1" y="-1" width="2" height="3" fill="#FFFFFF" opacity="0.8"/>
  </g>
  
  <!-- Steam from hot dishes -->
  <g opacity="0.5" filter="url(#steam)">
    <path d="M120 90 Q125 80 130 90 Q135 80 140 90" stroke="#F5F5F5" stroke-width="1.5" fill="none"/>
    <path d="M170 90 Q175 80 180 90 Q185 80 190 90" stroke="#F5F5F5" stroke-width="1.5" fill="none"/>
    <path d="M90 105 Q95 95 100 105 Q105 95 110 105" stroke="#F5F5F5" stroke-width="1" fill="none"/>
    <path d="M230 85 Q235 75 240 85" stroke="#F5F5F5" stroke-width="1" fill="none"/>
  </g>
  
  <!-- Red lantern lighting -->
  <circle cx="75" cy="25" r="35" fill="#DC143C" opacity="0.08"/>
  <circle cx="225" cy="30" r="30" fill="#DC143C" opacity="0.08"/>
  
  <!-- Traditional Chinese decorative elements -->
  <g opacity="0.7">
    <!-- Chinese coins -->
    <circle cx="60" cy="160" r="4" fill="#FFD700"/>
    <rect x="58" y="158" width="4" height="4" fill="#8B0000"/>
    
    <circle cx="240" cy="160" r="4" fill="#FFD700"/>
    <rect x="238" y="158" width="4" height="4" fill="#8B0000"/>
  </g>
  
  <!-- Bamboo mat texture under dishes -->
  <g opacity="0.2">
    <rect x="50" y="120" width="200" height="3" fill="#8B7355"/>
    <rect x="50" y="130" width="200" height="3" fill="#8B7355"/>
    <rect x="50" y="140" width="200" height="3" fill="#8B7355"/>
  </g>
</svg>
