<svg viewBox="0 0 400 300" xmlns="http://www.w3.org/2000/svg">
  <defs>
    <linearGradient id="riceGradient" x1="0%" y1="0%" x2="100%" y2="100%">
      <stop offset="0%" style="stop-color:#FFFEF7;stop-opacity:1" />
      <stop offset="100%" style="stop-color:#F5F5DC;stop-opacity:1" />
    </linearGradient>
    <radialGradient id="noriGradient" cx="50%" cy="50%" r="60%">
      <stop offset="0%" style="stop-color:#2C5530;stop-opacity:1" />
      <stop offset="100%" style="stop-color:#1B3D1F;stop-opacity:1" />
    </radialGradient>
    <linearGradient id="salmonGradient" x1="0%" y1="0%" x2="100%" y2="100%">
      <stop offset="0%" style="stop-color:#FF9E80;stop-opacity:1" />
      <stop offset="100%" style="stop-color:#FF7043;stop-opacity:1" />
    </linearGradient>
    <linearGradient id="avocadoGradient" x1="0%" y1="0%" x2="100%" y2="100%">
      <stop offset="0%" style="stop-color:#8BC34A;stop-opacity:1" />
      <stop offset="100%" style="stop-color:#689F38;stop-opacity:1" />
    </linearGradient>
    <radialGradient id="cucumberGradient" cx="50%" cy="50%" r="60%">
      <stop offset="0%" style="stop-color:#A5D6A7;stop-opacity:1" />
      <stop offset="100%" style="stop-color:#66BB6A;stop-opacity:1" />
    </radialGradient>
    <linearGradient id="plateGradient" x1="0%" y1="0%" x2="100%" y2="100%">
      <stop offset="0%" style="stop-color:#F8F8F8;stop-opacity:1" />
      <stop offset="100%" style="stop-color:#E0E0E0;stop-opacity:1" />
    </linearGradient>
    <filter id="shadow" x="-50%" y="-50%" width="200%" height="200%">
      <feDropShadow dx="4" dy="8" stdDeviation="4" flood-color="#000000" flood-opacity="0.2"/>
    </filter>
    <filter id="riceTex" x="0%" y="0%" width="100%" height="100%">
      <feTurbulence baseFrequency="0.3" numOctaves="2" result="noise"/>
      <feColorMatrix in="noise" type="saturate" values="0"/>
      <feComponentTransfer>
        <feFuncA type="discrete" tableValues="0.1 0.2 0.3"/>
      </feComponentTransfer>
      <feComposite operator="multiply" in2="SourceGraphic"/>
    </filter>
  </defs>
  
  <!-- Wooden serving board -->
  <ellipse cx="200" cy="260" rx="180" ry="25" fill="#8D6E63" opacity="0.3"/>
  
  <!-- Serving plate -->
  <ellipse cx="200" cy="250" rx="160" ry="20" fill="url(#plateGradient)" filter="url(#shadow)"/>
  <ellipse cx="200" cy="245" rx="155" ry="18" fill="#FFF" opacity="0.8"/>
  
  <!-- Sushi roll pieces -->
  <g filter="url(#shadow)">
    <!-- Roll 1 -->
    <g transform="translate(120,180)">
      <!-- Outer nori (seaweed) -->
      <circle cx="0" cy="0" r="35" fill="url(#noriGradient)"/>
      <!-- Inner rice layer -->
      <circle cx="0" cy="0" r="30" fill="url(#riceGradient)" filter="url(#riceTex)"/>
      <!-- Fillings -->
      <rect x="-20" y="-3" width="40" height="6" rx="3" fill="url(#salmonGradient)"/>
      <rect x="-15" y="5" width="30" height="4" rx="2" fill="url(#avocadoGradient)"/>
      <rect x="-18" y="-10" width="36" height="3" rx="1.5" fill="url(#cucumberGradient)"/>
      <!-- Rice texture dots -->
      <circle cx="-8" cy="-15" r="1" fill="#FFF" opacity="0.8"/>
      <circle cx="10" cy="-12" r="1" fill="#FFF" opacity="0.8"/>
      <circle cx="-12" cy="8" r="1" fill="#FFF" opacity="0.8"/>
      <circle cx="15" cy="10" r="1" fill="#FFF" opacity="0.8"/>
      <circle cx="5" cy="18" r="1" fill="#FFF" opacity="0.8"/>
    </g>
    
    <!-- Roll 2 -->
    <g transform="translate(200,180)">
      <circle cx="0" cy="0" r="35" fill="url(#noriGradient)"/>
      <circle cx="0" cy="0" r="30" fill="url(#riceGradient)" filter="url(#riceTex)"/>
      <rect x="-22" y="-4" width="44" height="8" rx="4" fill="url(#salmonGradient)"/>
      <rect x="-16" y="6" width="32" height="5" rx="2.5" fill="url(#avocadoGradient)"/>
      <rect x="-20" y="-12" width="40" height="4" rx="2" fill="url(#cucumberGradient)"/>
      <circle cx="-10" cy="-18" r="1" fill="#FFF" opacity="0.8"/>
      <circle cx="12" cy="-10" r="1" fill="#FFF" opacity="0.8"/>
      <circle cx="-15" cy="12" r="1" fill="#FFF" opacity="0.8"/>
      <circle cx="18" cy="8" r="1" fill="#FFF" opacity="0.8"/>
      <circle cx="3" cy="20" r="1" fill="#FFF" opacity="0.8"/>
    </g>
    
    <!-- Roll 3 -->
    <g transform="translate(280,180)">
      <circle cx="0" cy="0" r="35" fill="url(#noriGradient)"/>
      <circle cx="0" cy="0" r="30" fill="url(#riceGradient)" filter="url(#riceTex)"/>
      <rect x="-20" y="-3" width="40" height="6" rx="3" fill="url(#salmonGradient)"/>
      <rect x="-15" y="5" width="30" height="4" rx="2" fill="url(#avocadoGradient)"/>
      <rect x="-18" y="-10" width="36" height="3" rx="1.5" fill="url(#cucumberGradient)"/>
      <circle cx="-8" cy="-15" r="1" fill="#FFF" opacity="0.8"/>
      <circle cx="10" cy="-12" r="1" fill="#FFF" opacity="0.8"/>
      <circle cx="-12" cy="8" r="1" fill="#FFF" opacity="0.8"/>
      <circle cx="15" cy="10" r="1" fill="#FFF" opacity="0.8"/>
      <circle cx="5" cy="18" r="1" fill="#FFF" opacity="0.8"/>
    </g>
    
    <!-- Roll 4 -->
    <g transform="translate(160,220)">
      <circle cx="0" cy="0" r="35" fill="url(#noriGradient)"/>
      <circle cx="0" cy="0" r="30" fill="url(#riceGradient)" filter="url(#riceTex)"/>
      <rect x="-22" y="-4" width="44" height="8" rx="4" fill="url(#salmonGradient)"/>
      <rect x="-16" y="6" width="32" height="5" rx="2.5" fill="url(#avocadoGradient)"/>
      <rect x="-20" y="-12" width="40" height="4" rx="2" fill="url(#cucumberGradient)"/>
      <circle cx="-10" cy="-18" r="1" fill="#FFF" opacity="0.8"/>
      <circle cx="12" cy="-10" r="1" fill="#FFF" opacity="0.8"/>
      <circle cx="-15" cy="12" r="1" fill="#FFF" opacity="0.8"/>
      <circle cx="18" cy="8" r="1" fill="#FFF" opacity="0.8"/>
      <circle cx="3" cy="20" r="1" fill="#FFF" opacity="0.8"/>
    </g>
    
    <!-- Roll 5 -->
    <g transform="translate(240,220)">
      <circle cx="0" cy="0" r="35" fill="url(#noriGradient)"/>
      <circle cx="0" cy="0" r="30" fill="url(#riceGradient)" filter="url(#riceTex)"/>
      <rect x="-20" y="-3" width="40" height="6" rx="3" fill="url(#salmonGradient)"/>
      <rect x="-15" y="5" width="30" height="4" rx="2" fill="url(#avocadoGradient)"/>
      <rect x="-18" y="-10" width="36" height="3" rx="1.5" fill="url(#cucumberGradient)"/>
      <circle cx="-8" cy="-15" r="1" fill="#FFF" opacity="0.8"/>
      <circle cx="10" cy="-12" r="1" fill="#FFF" opacity="0.8"/>
      <circle cx="-12" cy="8" r="1" fill="#FFF" opacity="0.8"/>
      <circle cx="15" cy="10" r="1" fill="#FFF" opacity="0.8"/>
      <circle cx="5" cy="18" r="1" fill="#FFF" opacity="0.8"/>
    </g>
    
    <!-- Roll 6 -->
    <g transform="translate(200,220)">
      <circle cx="0" cy="0" r="35" fill="url(#noriGradient)"/>
      <circle cx="0" cy="0" r="30" fill="url(#riceGradient)" filter="url(#riceTex)"/>
      <rect x="-22" y="-4" width="44" height="8" rx="4" fill="url(#salmonGradient)"/>
      <rect x="-16" y="6" width="32" height="5" rx="2.5" fill="url(#avocadoGradient)"/>
      <rect x="-20" y="-12" width="40" height="4" rx="2" fill="url(#cucumberGradient)"/>
      <circle cx="-10" cy="-18" r="1" fill="#FFF" opacity="0.8"/>
      <circle cx="12" cy="-10" r="1" fill="#FFF" opacity="0.8"/>
      <circle cx="-15" cy="12" r="1" fill="#FFF" opacity="0.8"/>
      <circle cx="18" cy="8" r="1" fill="#FFF" opacity="0.8"/>
      <circle cx="3" cy="20" r="1" fill="#FFF" opacity="0.8"/>
    </g>
  </g>
  
  <!-- Garnish -->
  <!-- Wasabi -->
  <ellipse cx="90" cy="240" rx="12" ry="8" fill="#7CB342"/>
  <ellipse cx="90" cy="237" rx="10" ry="6" fill="#8BC34A"/>
  
  <!-- Pickled ginger -->
  <path d="M 310 230 Q 320 225 330 235 Q 325 245 315 240 Q 305 235 310 230 Z" fill="#FFB74D"/>
  <path d="M 315 232 Q 323 228 328 235 Q 323 242 318 238 Q 312 235 315 232 Z" fill="#FFC107"/>
  
  <!-- Soy sauce drops -->
  <circle cx="150" cy="260" r="2" fill="#3E2723" opacity="0.8"/>
  <circle cx="250" cy="255" r="1.5" fill="#3E2723" opacity="0.6"/>
  
  <!-- Shine effects -->
  <ellipse cx="180" cy="170" rx="15" ry="8" fill="#FFF" opacity="0.2"/>
  <ellipse cx="220" cy="170" rx="15" ry="8" fill="#FFF" opacity="0.2"/>
  <ellipse cx="260" cy="170" rx="15" ry="8" fill="#FFF" opacity="0.2"/>
</svg>
